<?xml version="1.0" encoding="UTF-8"?>
<svg width="38px" height="38px" viewBox="0 0 38 38" version="1.1" xmlns="http://www.w3.org/2000/svg" xmlns:xlink="http://www.w3.org/1999/xlink">
    <!-- Generator: Sketch 46.2 (44496) - http://www.bohemiancoding.com/sketch -->
    <title>Oval</title>
    <desc>Created with Sketch.</desc>
    <defs></defs>
    <g id="Atoms" stroke="none" stroke-width="1" fill="none" fill-rule="evenodd">
        <g id="UIKIT_CheckoutButtons" transform="translate(-396.000000, -1141.000000)" fill-rule="nonzero" fill="#000000">
            <path d="M415,1179 C425.49341,1179 434,1170.49341 434,1160 C434,1149.50659 425.49341,1141 415,1141 C409.144842,1141 403.726147,1143.66664 400.143126,1148.15521 C397.476791,1151.49542 396,1155.63617 396,1160 L398,1160 C398,1156.0937 399.320239,1152.3919 401.706194,1149.40293 C404.913658,1145.38484 409.759723,1143 415,1143 C424.388841,1143 432,1150.61116 432,1160 C432,1169.38884 424.388841,1177 415,1177 L415,1179 Z" id="Oval" transform="translate(415.000000, 1160.000000) scale(-1, 1) rotate(-180.000000) translate(-415.000000, -1160.000000) "></path>
        </g>
    </g>
</svg>