<svg xmlns="http://www.w3.org/2000/svg" viewBox="0 0 500 67"><g fill="#222" fill-rule="evenodd"><path d="M13.35 13.34H40V0H13.35L0 13.34v53.2h13.35v-26.6h20V26.62h-20V13.35M77.63 26.6H90.9V13.35H77.63V26.6zM90.9 0H77.63L64.28 13.34v53.2h13.35v-26.6H90.9v26.6h13.35v-53.2L90.9 0zM459.52 0v66.54h13.35v-26.6h13.27v26.6h13.35V0h-13.36v26.6h-13.27V0h-13.35M146.63 26.6V13.35h13.4V26.6h13.36V13.35L160.03 0h-26.7v66.54h13.3v-26.6h13.4v26.6h13.35v-26.6l-13.36-13.33h-13.4M215.73 13.34h26.65V0h-26.66l-13.34 13.34v53.2h13.34v-26.6h20.02V26.62h-20.02V13.35M370.96 0H331l-.05 13.34h13.33v53.2h13.35v-53.2h13.33V0M277.65 53.22h-.02V39.95h20.02V26.6h-20.02V13.35h26.67V0h-26.67L264.3 13.34v39.88l13.33 13.32h26.67V53.22h-26.65M408.6 53.22V13.34h26.63V0h-26.65l-13.34 13.34v39.88l13.34 13.32h26.66V53.22H408.6"/></g></svg>