<svg width="50" height="27" viewBox="0 0 50 27" xmlns="http://www.w3.org/2000/svg"><title>securedbadge_norton</title><g fill="none" fill-rule="evenodd"><path d="M9.12 4.1c-4.25 0-7.7 3.43-7.7 7.64 0 4.2 3.45 7.63 7.7 7.63H41.2c4.23 0 7.7-3.42 7.7-7.63 0-4.2-3.47-7.64-7.7-7.64H9.1" fill="#FFF"/><path d="M41.2 20.02H9.1c-4.6 0-8.35-3.7-8.35-8.28 0-4.57 3.74-8.3 8.35-8.3H41.2c4.6 0 8.34 3.73 8.34 8.3s-3.74 8.28-8.35 8.28M9.1 4.1c-4.25 0-7.7 3.43-7.7 7.64 0 4.2 3.45 7.63 7.7 7.63H41.2c4.23 0 7.7-3.42 7.7-7.63 0-4.2-3.47-7.64-7.7-7.64H9.1" fill="#BFC0BF"/><path d="M37.34 7.1c-1.24 0-2.25 1-2.25 2.24 0 1.23 1 2.24 2.24 2.24 1.25 0 2.26-1 2.26-2.24 0-1.24-1-2.24-2.26-2.24m0 3.4c-.64 0-1.15-.53-1.15-1.16 0-.64.5-1.15 1.14-1.15.64 0 1.16.5 1.16 1.14 0 .63-.52 1.15-1.16 1.15M27 7.1c-1.24 0-2.25 1-2.25 2.24 0 1.23 1 2.24 2.25 2.24s2.26-1 2.26-2.24c0-1.24-1-2.24-2.26-2.24m0 3.4c-.64 0-1.15-.53-1.15-1.16 0-.64.5-1.15 1.15-1.15.64 0 1.16.5 1.16 1.14 0 .63-.52 1.15-1.16 1.15M34.94 10.55c-.14.04-.36.08-.44.08-.4 0-.47-.13-.47-.5V8.07h.92V7.2h-.92V5.98H33l-.22 1.22H32c-.6 0-1.04.36-1.33.92l-.36-.92h-.73v4.3h1.27V9.62c0-.94.56-1.55 1.22-1.56h.7v2.13c0 1 .52 1.38 1.36 1.38.44 0 .77-.1.97-.16l-.16-.87M41.14 8.56v2.93H39.9V7.2h.75l.25.66" fill="#1A1918"/><path d="M40.9 7.86c.37-.43.9-.76 1.5-.76 1.02 0 1.44.82 1.44 1.57v2.82h-1.27V8.7c0-.36-.3-.56-.64-.56-.36 0-.6.2-.8.42M19.8 5.65h1.4l1.95 3.67V5.65h1.17v5.85h-1.28l-2.08-4.05v4.05H19.8V5.65" fill="#1A1918"/><path fill="#9E9F9E" d="M47.6 3.45v.2h-.3V4.7h-.25V3.65h-.3v-.2h.85M47.77 4.7V3.44h.33l.2.8.23-.8h.33V4.7h-.2V3.7l-.25.97h-.17l-.25-.98v.97h-.2M19.43 16.68l.3-.46c.24.18.6.34 1.03.34.43 0 .7-.2.7-.52 0-.38-.34-.48-.9-.67-.47-.17-.95-.42-.95-1.1 0-.65.52-1 1.2-1 .46 0 .8.1 1.07.25l-.24.48c-.22-.1-.5-.2-.8-.2-.4 0-.63.15-.63.45 0 .36.27.45.77.6.52.18 1.1.42 1.1 1.18 0 .64-.47 1.07-1.3 1.07-.62 0-1.07-.22-1.34-.42M23.18 13.33h2.23v.5h-1.58v1.03h1.26v.5h-1.26v1.17h1.7v.52h-2.34v-3.72M26.4 15.2c0-1.1.54-1.93 1.58-1.93.47 0 .84.15 1.1.45l-.37.43c-.2-.22-.4-.33-.7-.33-.62 0-.9.5-.9 1.42 0 .86.3 1.3.9 1.3.33 0 .57-.17.77-.4l.38.42c-.27.32-.6.54-1.16.54-1.08 0-1.6-.82-1.6-1.9M30.18 15.62v-2.3h.64v2.4c0 .52.13.85.67.85.53 0 .66-.33.66-.84v-2.4h.65v2.3c0 .92-.35 1.47-1.32 1.47-.94 0-1.3-.55-1.3-1.48M36.7 17.05h-.68l-.72-1.58h-.6v1.58h-.62v-3.72h1.22c.75 0 1.35.27 1.35 1.08 0 .57-.34.85-.7.98l.76 1.67zM35.3 15c.47 0 .7-.17.7-.6 0-.4-.23-.56-.67-.56h-.6V15h.58zM37.8 13.33h2.23v.5h-1.6v1.03h1.26v.5h-1.27v1.17h1.7v.52H37.8v-3.72M41.2 13.33h.93c1.22 0 1.8.66 1.8 1.85 0 1.2-.6 1.87-1.77 1.87h-.97v-3.72zm.9 3.2c.86 0 1.16-.4 1.16-1.35 0-.84-.23-1.34-1.1-1.34h-.33v2.7h.26z"/><path d="M9.08 20.68c-4.97 0-9-4-9-8.94 0-4.93 4.03-8.94 9-8.94s9 4 9 8.94c0 4.93-4.03 8.94-9 8.94m0-15.05c-1.65 0-3.2.63-4.36 1.8-1.16 1.14-1.8 2.68-1.8 4.3 0 1.64.64 3.17 1.8 4.33 1.17 1.15 2.7 1.8 4.36 1.8 1.64 0 3.2-.65 4.35-1.8 1.17-1.16 1.8-2.7 1.8-4.32 0-1.63-.63-3.17-1.8-4.33-1.16-1.14-2.7-1.77-4.35-1.77M18.9 1.42h.7v.7h-.7M18.9.03h.7v.7h-.7M16.92 2.1h.65v.7h-.65" fill="#F6BC25"/><path fill="#1A1918" d="M15.62 3.45h.66v.65h-.66M17.57 2.8h.74v.65h-.73M14.96 2.83h.66v.6h-.66M16.92 3.45h.65v.65h-.65M18.2.73h.7v.7h-.7"/><path fill="#1A1918" d="M16.92 1.42h1.28v.7h-1.28M16.28 2.1h.63v1.35h-.62M16.28 4.1v.66h-.66V4.1h-1.1v.47h-.6v.6h.67v.64h-.67v-.64h-.7v1h-.66v.67h-.44v.65h-.48c-.54.8-1.9 3.3-2.3 4.3C7.86 9.74 6.7 8.93 5.8 8.64c-.47-.15-1.06.38-.25 1.2 1.86 2.04 2.44 3.72 3 5.06.3.7 1.65.8 1.92.1.57-1.53 1.4-3.24 2.38-4.64v-.73h.53v-.65h.55v-.76h.66v-.74h-.68v-.66h.67v.66h.64v-.65h.52v-.8h.6v-.55h.56V4.1h-.64"/><path d="M3.57 23.74h.5v.36c.15-.22.37-.4.72-.4.5 0 1 .4 1 1.1 0 .72-.5 1.12-1 1.12-.36 0-.6-.18-.74-.37v.98h-.5v-2.8zM5.3 24.8c0-.4-.3-.68-.62-.68-.34 0-.63.28-.63.7 0 .4.3.68.63.68s.6-.27.6-.7zM6.2 24.82c0-.62.48-1.12 1.14-1.12.67 0 1.15.5 1.15 1.1 0 .62-.5 1.13-1.16 1.13-.66 0-1.14-.5-1.14-1.1m1.8 0v-.02c0-.36-.28-.67-.66-.67-.4 0-.65.3-.65.68 0 .4.26.7.64.7.4 0 .66-.3.66-.68M8.73 23.74h.5l.44 1.47.47-1.47h.42l.48 1.48.44-1.46h.5l-.7 2.15h-.45l-.48-1.47-.48 1.46h-.44l-.7-2.16M12.23 24.82c0-.62.44-1.12 1.05-1.12.7 0 1.03.53 1.03 1.15v.13h-1.58c.06.35.3.55.62.55.24 0 .42-.1.6-.26l.28.26c-.2.24-.5.4-.88.4-.63 0-1.1-.45-1.1-1.1m1.6-.17c-.05-.32-.23-.56-.56-.56-.3 0-.5.23-.56.56h1.1M14.83 23.74h.5v.48c.13-.32.37-.53.75-.52v.52h-.02c-.44 0-.74.28-.74.84v.82h-.5v-2.14M16.37 24.82c0-.62.44-1.12 1.05-1.12.7 0 1.03.53 1.03 1.15v.13h-1.6c.07.35.32.55.63.55.24 0 .42-.1.6-.26l.28.26c-.2.24-.5.4-.88.4-.63 0-1.1-.45-1.1-1.1m1.58-.17c-.03-.32-.22-.56-.54-.56-.3 0-.52.23-.56.56h1.1M18.85 24.8c0-.7.5-1.1 1-1.1.36 0 .58.18.74.37v-1.15h.48v2.96h-.5v-.36c-.15.22-.38.4-.73.4-.5 0-1-.4-1-1.1m1.74 0c0-.43-.3-.7-.63-.7-.34 0-.62.26-.62.7 0 .4.3.68.62.68.33 0 .62-.28.62-.7M23.4 25.55v.33h-.48v-2.96h.5v1.18c.15-.22.37-.4.72-.4.5 0 1 .4 1 1.1 0 .72-.5 1.12-1 1.12-.36 0-.58-.18-.73-.37m1.24-.74c0-.4-.28-.68-.6-.68-.35 0-.64.28-.64.7 0 .4.3.68.63.68s.6-.27.6-.7M25.48 26.4l.17-.36c.1.05.18.08.28.08.14 0 .23-.06.3-.24l-.9-2.14h.54l.6 1.6.57-1.6h.5l-.84 2.2c-.17.44-.37.6-.7.6-.22 0-.37-.05-.52-.13" fill="#9E9F9E"/><g fill="#221F20"><path d="M30 25.93c-.5 0-.83-.2-.98-.3L29 25.6l.23-.34v-.02h.03c.12.1.4.26.75.26.3 0 .5-.13.5-.36 0-.26-.22-.33-.6-.46h-.04c-.38-.14-.73-.33-.73-.84 0-.45.36-.74.9-.74.33 0 .6.06.8.18h.02v.03l-.18.36v.02h-.03c-.2-.1-.4-.15-.6-.15-.2 0-.42.05-.42.3s.18.3.55.43c.4.12.82.3.82.87 0 .5-.38.8-1 .8M31.38 26.6c-.1 0-.18 0-.3-.02v-.03l.04-.33v-.02h.06c.05.02.1.02.15.02.2 0 .3-.07.4-.23L31 23.9h.54l.42 1.47.37-1.47h.51l-.64 2.07c-.15.44-.4.64-.82.64M35.76 25.9h-.51v-1.35c0-.17-.04-.28-.2-.28-.12 0-.26.07-.4.2v1.42h-.52v-1.35c0-.17-.04-.28-.2-.28-.13 0-.28.08-.4.2v1.42H33V23.9H33.34l.1.27c.2-.22.43-.33.66-.33.28 0 .4.16.47.3.14-.14.36-.3.64-.3.47 0 .56.4.56.7v1.35zM37.14 24.94c-.33.07-.5.13-.57.2-.04.06-.05.1-.05.18 0 .15.08.23.24.23.13 0 .27-.06.38-.15v-.46zm-.5 1c-.37 0-.63-.25-.63-.6 0-.2.1-.37.25-.48.18-.1.46-.2.9-.26v-.05c0-.22-.1-.3-.3-.3-.2 0-.38.08-.56.16l-.03.02v-.02l-.17-.3v-.02c.27-.17.5-.24.8-.24.5 0 .76.26.76.74v1.3h-.32l-.1-.2c-.12.12-.32.25-.6.25zM39.78 25.9h-.52v-1.35c0-.2-.07-.28-.23-.28-.14 0-.3.08-.42.2v1.42h-.51V23.9H38.4l.1.28c.2-.23.43-.34.67-.34.38 0 .58.24.58.7v1.35zM40.85 25.93c-.4 0-.6-.2-.6-.6v-1.08H39.95v-.34H40.26l.1-.56v-.02H40.77V23.9H41.2V24.26H40.78v1.05c0 .17.02.24.18.24.06 0 .14-.02.2-.04h.04l.06.33v.02c-.07.03-.2.08-.4.08M41.88 24.7h.7c-.02-.32-.13-.48-.34-.48-.22 0-.33.16-.36.5m.4 1.2c-.58 0-.94-.4-.94-1.02 0-.64.35-1.06.9-1.06s.86.4.86 1.06v.15h-1.22c.02.32.16.47.43.47.23 0 .37-.08.53-.18h.02l.2.3v.02c-.2.15-.4.27-.78.27M44.24 25.93c-.68 0-.92-.53-.92-1.03s.24-1.06.92-1.06c.28 0 .48.07.66.22v.02l-.2.32h-.03c-.13-.08-.24-.14-.42-.14-.27 0-.4.22-.4.64 0 .4.13.6.4.6.2 0 .3-.06.43-.16h.02l.23.3h.02l-.02.02c-.18.18-.4.27-.7.27"/></g></g></svg>