<svg xmlns="http://www.w3.org/2000/svg" viewBox="0 0 32 7.7"><path d="M2.9 1.8h2.2c1.1 0 1.6.6 1.6 1.4-.1 1.4-1 2.2-2.1 2.2h-.7c-.2 0-.2.1-.3.4l-.2 1.7c0 .1-.1.2-.2.2H1.8c-.1 0-.2-.1-.1-.3L2.5 2c0-.1.1-.2.4-.2z" fill="#009DE2"/><path d="M12.3 1.7c.7 0 1.4.4 1.3 1.4 0 1.2-.7 1.9-1.7 1.9H11c-.1 0-.2.1-.2.3l-.2 1.1c0 .2-.1.2-.2.2h-.8c-.1 0-.2-.1-.1-.2l.7-4.4c.1-.2.1-.3.2-.3h1.9zM11 4h.7c.4 0 .7-.3.7-.8 0-.3-.2-.5-.5-.5h-.6L11 4zm4.9 2.3c.1-.1.2-.1.1 0v.2c0 .1 0 .2.1.2h.7c.1 0 .2-.1.2-.2l.4-2.8c0-.1 0-.2-.1-.2h-.8c-.1 0-.1.1-.1.1v.2c0 .1-.1.1-.1 0-.1-.3-.5-.5-1-.5-1.1 0-1.9.8-1.9 1.9 0 .8.6 1.5 1.4 1.5.6 0 .8-.2 1.1-.4zm-.6-.5c-.5 0-.8-.4-.7-.8.1-.5.5-.8 1-.8s.8.4.7.8-.5.8-1 .8zm3.6-2.4h-.7c-.2 0-.2.1-.2.2l.9 2.7-.9 1.2c-.1.1 0 .2.1.2h.8c.1 0 .2-.1.2-.1l2.8-4c.1-.2.1-.3-.1-.3H21c-.1 0-.2.1-.2.2l-1.1 1.7-.5-1.7c0-.1-.2-.1-.3-.1z" fill="#113984"/><path d="M24.9 1.7c.7 0 1.4.4 1.3 1.4-.1 1.2-.7 1.9-1.7 1.9h-.9c-.1 0-.2.1-.2.3l-.2 1.1c0 .2-.1.2-.2.2h-1c-.1 0-.2-.1-.1-.2l.7-4.4c.1-.2.1-.3.2-.3h2.1zM23.6 4h.7c.4 0 .7-.3.7-.8 0-.3-.2-.5-.5-.5h-.6L23.6 4zm4.8 2.3c.1-.1.2-.1.1 0v.2c0 .1 0 .2.1.2h.7c.1 0 .2-.1.2-.2l.4-2.8c0-.1 0-.2-.1-.2H29c-.1 0-.1.1-.1.1v.2c0 .1-.1.1-.1 0-.1-.3-.5-.5-1-.5-1.1 0-1.9.8-1.9 1.9.1.8.7 1.5 1.5 1.5.5 0 .7-.2 1-.4zm-.6-.5c-.5 0-.8-.4-.7-.8.1-.5.5-.8 1-.8s.9.3.8.8c-.1.4-.6.8-1.1.8zm3.3.8h-.8c-.1 0-.1-.1-.1-.1l.7-4.6c0-.1.1-.1.1-.1h.9c.1 0 .1.1.1.1l-.7 4.6c0 .1 0 .1-.2.1z" fill="#009DE2"/><path d="M1.5 0h2.2C4.3 0 5 0 5.5.4c.3.3.5.7.5 1.3-.2 1.7-1.2 2.6-2.5 2.6H2.4c-.2 0-.3.1-.4.4l-.2 1.9c0 .1-.1.2-.2.2H.3c-.1 0-.2-.1-.2-.4l1-6.1c0-.2.2-.3.4-.3z" fill="#113984"/><path d="M2.1 4.5l.4-2.4c.1-.2.1-.3.4-.3H5c.4 0 .7.1.9.2-.2 1.5-1.2 2.3-2.4 2.3H2.4c-.1 0-.2 0-.3.2z" fill="#172C70"/></svg>